<?xml version="1.0" encoding="UTF-8"?> <svg xmlns="http://www.w3.org/2000/svg" width="237.001" height="61.339" viewBox="0 0 237.001 61.339"><defs><style>.a{fill:#fff;}</style></defs><g transform="translate(58.299 7.255)"><path class="a" d="M349.748,424.143v4.62c0,4.752-3.11,6.512-7.816,6.512h-.091c-4.708,0-7.818-1.716-7.818-6.512V410.28c0-4.576,3.11-6.512,7.818-6.512h.091c4.706,0,7.816,1.935,7.816,6.512v3.873a1.587,1.587,0,0,1-1.776,1.76h-1.6a1.587,1.587,0,0,1-1.776-1.76v-3.08c0-2.157-1.066-2.816-2.71-2.816s-2.708.66-2.708,2.816v16.9c0,2.157,1.064,2.816,2.708,2.816s2.71-.66,2.71-2.816v-3.827a1.588,1.588,0,0,1,1.776-1.762h1.6A1.588,1.588,0,0,1,349.748,424.143Z" transform="translate(-334.024 -403.768)"></path><path class="a" d="M346.042,403.937h1.6a1.587,1.587,0,0,1,1.777,1.758v11.09h5.909v-11.09a1.586,1.586,0,0,1,1.774-1.758h1.6a1.588,1.588,0,0,1,1.778,1.758v27.283a1.59,1.59,0,0,1-1.778,1.762h-1.6a1.588,1.588,0,0,1-1.774-1.762V421.362h-5.909v11.617a1.589,1.589,0,0,1-1.777,1.762h-1.6a1.589,1.589,0,0,1-1.776-1.762V405.695A1.586,1.586,0,0,1,346.042,403.937Z" transform="translate(-322.684 -403.584)"></path><path class="a" d="M369.7,434.74h-1.553a1.879,1.879,0,0,1-2-1.453l-3.464-10.825h-2.619v10.516a1.589,1.589,0,0,1-1.776,1.762h-1.6a1.589,1.589,0,0,1-1.776-1.762V405.695a1.586,1.586,0,0,1,1.776-1.758h6.263c4.708,0,7.818,1.846,7.818,6.512v5.5c0,2.95-1.245,4.8-3.376,5.723l3.774,11.044A1.4,1.4,0,0,1,369.7,434.74Zm-9.636-16.679h2.708c1.69,0,2.843-.616,2.843-2.816v-4c0-2.2-1.153-2.816-2.843-2.816h-2.708Z" transform="translate(-310.899 -403.584)"></path><path class="a" d="M368.715,434.74h-1.6a1.588,1.588,0,0,1-1.774-1.762V405.695a1.586,1.586,0,0,1,1.774-1.758h1.6a1.586,1.586,0,0,1,1.776,1.758v27.283A1.589,1.589,0,0,1,368.715,434.74Z" transform="translate(-299.348 -403.584)"></path><path class="a" d="M384.115,415.121h-1.509a1.587,1.587,0,0,1-1.776-1.76v-2.553a2.62,2.62,0,1,0-5.241,0v2.113c0,1.585.533,2.288,2,3.123l3.641,2.025c2.975,1.672,4.754,3.036,4.754,6.336v4.445c0,4.752-2.978,6.424-7.685,6.424h-.088c-4.708,0-7.683-1.629-7.683-6.424v-3.608a1.588,1.588,0,0,1,1.777-1.762h1.509a1.589,1.589,0,0,1,1.779,1.762v2.9a2.665,2.665,0,1,0,5.329,0v-2.42a3.137,3.137,0,0,0-2.044-3.211l-3.6-2.025c-3.02-1.716-4.752-3.123-4.752-6.336V410.1c0-4.576,3.376-6.336,7.639-6.336h.088c4.265,0,7.641,1.76,7.641,6.336v3.257A1.588,1.588,0,0,1,384.115,415.121Z" transform="translate(-293.609 -403.768)"></path><path class="a" d="M395.005,405.695v.969a1.587,1.587,0,0,1-1.776,1.76h-3.42v24.555a1.589,1.589,0,0,1-1.776,1.762h-1.6a1.589,1.589,0,0,1-1.776-1.762V408.424h-3.42a1.587,1.587,0,0,1-1.776-1.76v-.969a1.586,1.586,0,0,1,1.776-1.758h11.992A1.586,1.586,0,0,1,395.005,405.695Z" transform="translate(-283.715 -403.584)"></path><path class="a" d="M401.694,428.8a1.811,1.811,0,0,1-1.909,1.453,1.859,1.859,0,0,1-1.953-1.453l-4.177-12.892v17.072a1.588,1.588,0,0,1-1.774,1.762h-1.243a1.589,1.589,0,0,1-1.778-1.762V405.695a1.587,1.587,0,0,1,1.778-1.758h1.6a1.877,1.877,0,0,1,2,1.451l5.506,16.458,5.553-16.458a1.919,1.919,0,0,1,2-1.451h1.779a1.586,1.586,0,0,1,1.774,1.758v27.283a1.588,1.588,0,0,1-1.774,1.762h-1.422a1.589,1.589,0,0,1-1.777-1.762V415.906Z" transform="translate(-273.308 -403.584)"></path><path class="a" d="M417.359,434.74h-1.642a1.752,1.752,0,0,1-1.911-1.628l-.843-5.238h-5.685l-.845,5.238a1.751,1.751,0,0,1-1.909,1.628h-1.378a1.44,1.44,0,0,1-1.6-1.894l5.108-27.327a1.785,1.785,0,0,1,1.954-1.583h3.2a1.786,1.786,0,0,1,1.956,1.583l5.2,27.327A1.441,1.441,0,0,1,417.359,434.74ZM412.3,423.65l-2.175-13.685-2.177,13.685Z" transform="translate(-259.308 -403.584)"></path><path class="a" d="M425.085,415.121h-1.511a1.587,1.587,0,0,1-1.777-1.76v-2.553a2.62,2.62,0,1,0-5.241,0v2.113c0,1.585.533,2.288,2,3.123l3.643,2.025c2.975,1.672,4.752,3.036,4.752,6.336v4.445c0,4.752-2.975,6.424-7.683,6.424h-.089c-4.71,0-7.685-1.629-7.685-6.424v-3.608a1.588,1.588,0,0,1,1.776-1.762h1.511a1.588,1.588,0,0,1,1.776,1.762v2.9a2.665,2.665,0,1,0,5.329,0v-2.42a3.137,3.137,0,0,0-2.044-3.211l-3.595-2.025c-3.022-1.716-4.754-3.123-4.754-6.336V410.1c0-4.576,3.376-6.336,7.639-6.336h.091c4.263,0,7.639,1.76,7.639,6.336v3.257A1.587,1.587,0,0,1,425.085,415.121Z" transform="translate(-248.247 -403.768)"></path></g><g transform="translate(58.299 45.848)"><path class="a" d="M339.288,429.606a2.144,2.144,0,0,1,1.789,2.4V434.5c0,1.731-1.136,2.986-3.45,2.986h-3.144a.406.406,0,0,1-.459-.432V422.77a.408.408,0,0,1,.459-.434h3.188c2.314,0,3.319,1.255,3.319,2.988v1.9C340.991,428.2,340.641,429.476,339.288,429.606Zm-4.084-.5h2.423c1.441,0,2.183-.541,2.183-1.687v-1.754c0-1.514-.567-2.272-2.183-2.272H335.2Zm2.512,1.081H335.2v6.23h2.512c1.616,0,2.183-.756,2.183-2.272v-2.269C339.9,430.731,339.157,430.19,337.716,430.19Z" transform="translate(-334.024 -422.163)"></path><path class="a" d="M349.4,437.481h-.35a.484.484,0,0,1-.5-.367l-2.381-6.165H343.5v6.1a.389.389,0,0,1-.436.432h-.284a.406.406,0,0,1-.457-.432V422.77a.407.407,0,0,1,.457-.434h3.146c2.314,0,3.492,1.082,3.492,3.2v2.207a2.757,2.757,0,0,1-2.095,3.029l2.423,6.186C349.856,437.264,349.724,437.481,349.4,437.481Zm-1.157-10.1v-1.451c0-1.8-.676-2.51-2.4-2.51H343.5v6.47h2.337C347.564,429.887,348.24,429.153,348.24,427.378Z" transform="translate(-324.835 -422.163)"></path><path class="a" d="M354.116,422.253h.173c2.316,0,3.494,1.084,3.494,3.2v9.086c0,2.121-1.178,3.2-3.494,3.2h-.173c-2.316,0-3.494-1.082-3.494-3.2v-9.086C350.622,423.314,351.8,422.253,354.116,422.253Zm.086,14.41c1.726,0,2.4-.714,2.4-2.509v-8.31c0-1.8-.676-2.507-2.4-2.507s-2.4.712-2.4,2.507v8.31C351.8,435.949,352.476,436.663,354.2,436.663Z" transform="translate(-315.646 -422.253)"></path><path class="a" d="M365.438,422.77v.194a.421.421,0,0,1-.457.453h-2.425v13.631a.406.406,0,0,1-.457.432h-.284a.389.389,0,0,1-.436-.432V423.417h-2.426a.421.421,0,0,1-.457-.453v-.194a.407.407,0,0,1,.457-.434h6.029A.407.407,0,0,1,365.438,422.77Z" transform="translate(-306.929 -422.163)"></path><path class="a" d="M366.807,422.336h.282a.392.392,0,0,1,.438.434v6.468h4.912V422.77a.391.391,0,0,1,.438-.434h.282a.408.408,0,0,1,.46.434v14.279a.406.406,0,0,1-.46.432h-.282a.39.39,0,0,1-.438-.432V430.32h-4.912v6.729a.39.39,0,0,1-.438.432h-.282a.406.406,0,0,1-.459-.432V422.77A.408.408,0,0,1,366.807,422.336Z" transform="translate(-298.233 -422.163)"></path><path class="a" d="M380.507,437.481h-5.152a.406.406,0,0,1-.459-.432V422.77a.408.408,0,0,1,.459-.434h5.087a.408.408,0,0,1,.459.434v.194a.422.422,0,0,1-.459.453h-4.366v5.842h3.69a.423.423,0,0,1,.459.455v.173a.423.423,0,0,1-.459.453h-3.69V436.4h4.432a.423.423,0,0,1,.459.455v.194A.406.406,0,0,1,380.507,437.481Z" transform="translate(-288.77 -422.163)"></path><path class="a" d="M389.6,437.481h-.35a.484.484,0,0,1-.5-.367l-2.381-6.165H383.7v6.1a.39.39,0,0,1-.438.432h-.283a.406.406,0,0,1-.459-.432V422.77a.408.408,0,0,1,.459-.434h3.144c2.314,0,3.494,1.082,3.494,3.2v2.207a2.757,2.757,0,0,1-2.1,3.029l2.425,6.186C390.053,437.264,389.923,437.481,389.6,437.481Zm-1.159-10.1v-1.451c0-1.8-.676-2.51-2.4-2.51H383.7v6.47h2.337C387.761,429.887,388.437,429.153,388.437,427.378Z" transform="translate(-280.327 -422.163)"></path><path class="a" d="M397.134,427.662h-.285a.416.416,0,0,1-.436-.453v-1.493c0-1.668-.611-2.4-2.25-2.4s-2.248.735-2.248,2.4v1.059c0,1.125.394,1.428,1.551,2.033l2.337,1.278a2.946,2.946,0,0,1,1.833,2.553v1.946c0,2.165-1.113,3.159-3.429,3.159h-.044c-2.314,0-3.426-.973-3.426-3.159v-2.012a.422.422,0,0,1,.457-.453h.284a.416.416,0,0,1,.436.453v1.666c0,1.645.611,2.445,2.272,2.445s2.272-.8,2.272-2.445v-1.211c0-1.125-.459-1.516-1.616-2.163l-2.293-1.234c-1.266-.714-1.812-1.3-1.812-2.509V425.37c0-2.077,1.309-3.117,3.405-3.117h.044c2.1,0,3.405,1.04,3.405,3.117v1.839A.422.422,0,0,1,397.134,427.662Z" transform="translate(-271.23 -422.253)"></path></g><path class="a" d="M350.467,433.155a21.114,21.114,0,0,1-14.746,12.111,21.45,21.45,0,0,1-24.937-14.218,21.024,21.024,0,0,1,14.711-26.594,21.358,21.358,0,0,1,19.214,4.23,4.841,4.841,0,0,0,4.351,1h0a.744.744,0,0,0,.377-1.207,24.59,24.59,0,1,0-11.954,39.891A24.571,24.571,0,0,0,354.8,431.307a.75.75,0,0,0-.927-.906l-.3.081A4.742,4.742,0,0,0,350.467,433.155Z" transform="translate(-306.358 -400.293)"></path><path class="a" d="M331.486,426.413a34.078,34.078,0,0,1-15.271,1.368,1.446,1.446,0,0,1-1.231-1.257c-.011-.211-.023-.419-.034-.63a.876.876,0,0,1,1.1-.889,33.133,33.133,0,0,0,15.033-1.346.893.893,0,0,1,1.247.683l.095.622A1.389,1.389,0,0,1,331.486,426.413Z" transform="translate(-296.845 -374.947)"></path><path class="a" d="M331.679,428.312a34.06,34.06,0,0,1-15.273,1.37,1.448,1.448,0,0,1-1.229-1.257c-.011-.211-.023-.42-.034-.631a.875.875,0,0,1,1.094-.892,33.137,33.137,0,0,0,15.035-1.345.894.894,0,0,1,1.248.681c.03.209.063.415.095.624A1.388,1.388,0,0,1,331.679,428.312Z" transform="translate(-296.632 -372.879)"></path><path class="a" d="M328.346,430.486a35.856,35.856,0,0,1-10.614.944,1.246,1.246,0,0,1-1.121-.979c-.049-.313-.1-.629-.145-.944-.08-.5.308-.864.864-.833a37.634,37.634,0,0,0,10.844-.967.77.77,0,0,1,1.031.668c.015.317.034.635.051.952A1.205,1.205,0,0,1,328.346,430.486Z" transform="translate(-295.178 -370.506)"></path><path class="a" d="M328.741,418.074c2.078-.48,2.7-2.541,2.5-4.4l-.35-3.278c-.35-3.278-2.881-4.9-6.865-4.478l-7.586.8a1.348,1.348,0,0,0-1.344,1.647l.99,9.274-2.7.284a.682.682,0,0,0-.611.747l.247,2.3a.685.685,0,0,0,.754.605l2.7-.282,1.085,10.168a1.353,1.353,0,0,0,1.663,1.332L326.73,432c3.985-.418,6.343-2.549,5.993-5.825l-.457-4.284C332.051,419.876,331.073,418.208,328.741,418.074Zm-9.053-7.94,4.657-.487a1.829,1.829,0,0,1,2.244,1.8l.322,3.017a1.824,1.824,0,0,1-1.814,2.226l-4.657.487Zm8.61,15.9a1.823,1.823,0,0,1-1.814,2.226l-4.807.5-.847-7.934,4.807-.5a1.829,1.829,0,0,1,2.244,1.8Z" transform="translate(-299.26 -394.248)"></path></svg> 