<?xml version="1.0" encoding="utf-8"?>
<!-- Generator: Adobe Illustrator 23.0.2, SVG Export Plug-In . SVG Version: 6.00 Build 0)  -->
<svg version="1.1" id="Logo" xmlns="http://www.w3.org/2000/svg" xmlns:xlink="http://www.w3.org/1999/xlink" x="0px" y="0px"
	 viewBox="0 0 373.4 125.2" style="enable-background:new 0 0 373.4 125.2;" xml:space="preserve">
<style type="text/css">
	.st0{fill:#C8C7D2;}
	.st1{fill:#FFFFFF;}
</style>
<g>
	<polygon class="st0" points="238.4,51.2 243,51.2 248.8,68.4 254.5,51.2 259.1,51.2 263.3,75.9 258.7,75.9 256.1,60.3 250.8,75.9 
		246.7,75.9 241.5,60.3 238.8,75.9 234.2,75.9 	"/>
	<g>
		<path class="st0" d="M274.1,61.4c-1.4,0-2.6,0.5-3.5,1.5c-0.9,1-1.4,2.3-1.4,3.9c0,1.6,0.5,2.9,1.4,3.9c1,1,2.1,1.5,3.5,1.5
			c1.4,0,2.6-0.5,3.6-1.5c1-1,1.4-2.3,1.4-3.9c0-1.6-0.5-2.9-1.4-3.9C276.8,61.9,275.6,61.4,274.1,61.4 M278.9,57.6h4.6v18.3h-4.6
			V74c-0.9,0.8-1.8,1.5-2.7,1.8s-1.9,0.6-2.9,0.6c-2.4,0-4.4-0.9-6.1-2.7c-1.7-1.8-2.6-4.1-2.6-6.8c0-2.8,0.8-5.1,2.5-6.9
			c1.7-1.8,3.7-2.7,6.1-2.7c1.1,0,2.1,0.2,3.1,0.6c1,0.4,1.8,1,2.7,1.9L278.9,57.6L278.9,57.6z"/>
		<path class="st0" d="M286.1,57.6h3.9v2.3c0.4-0.9,1-1.6,1.7-2.1c0.7-0.5,1.5-0.7,2.3-0.7c0.6,0,1.2,0.2,1.9,0.5l-1.4,3.9
			c-0.5-0.3-1-0.4-1.3-0.4c-0.7,0-1.3,0.4-1.8,1.3c-0.5,0.9-0.7,2.6-0.7,5.1l0,0.9v7.4h-4.5L286.1,57.6L286.1,57.6z"/>
		<path class="st0" d="M297.3,57.6h4.6v18.3h-4.6V57.6z M299.6,50.1c0.8,0,1.5,0.3,2.1,0.9c0.6,0.6,0.9,1.3,0.9,2.1
			c0,0.8-0.3,1.5-0.9,2.1c-0.6,0.6-1.2,0.9-2,0.9c-0.8,0-1.5-0.3-2.1-0.9c-0.6-0.6-0.9-1.3-0.9-2.1c0-0.8,0.3-1.5,0.9-2.1
			C298.1,50.4,298.8,50.1,299.6,50.1"/>
	</g>
	<polygon class="st0" points="306.1,50.9 310.7,50.9 310.7,57.6 313.4,57.6 313.4,61.6 310.7,61.6 310.7,75.9 306.1,75.9 
		306.1,61.6 303.8,61.6 303.8,57.6 306.1,57.6 	"/>
	<path class="st0" d="M315.4,57.6h4.6v18.3h-4.6V57.6z M317.7,50.1c0.8,0,1.5,0.3,2.1,0.9c0.6,0.6,0.9,1.3,0.9,2.1
		c0,0.8-0.3,1.5-0.9,2.1c-0.6,0.6-1.2,0.9-2,0.9c-0.8,0-1.5-0.3-2.1-0.9c-0.6-0.6-0.9-1.3-0.9-2.1c0-0.8,0.3-1.5,0.9-2.1
		C316.3,50.4,316.9,50.1,317.7,50.1"/>
	<path class="st0" d="M336.9,64.5c-0.3-1-0.9-1.8-1.8-2.5c-0.9-0.6-1.9-1-3.1-1c-1.3,0-2.4,0.4-3.4,1.1c-0.6,0.4-1.2,1.2-1.7,2.4
		H336.9z M341.5,68.1h-14.7c0.2,1.3,0.8,2.3,1.7,3.1c0.9,0.8,2.1,1.2,3.5,1.2c1.7,0,3.2-0.6,4.4-1.8l3.9,1.8c-1,1.4-2.1,2.4-3.5,3
		c-1.3,0.7-2.9,1-4.8,1c-2.9,0-5.2-0.9-7-2.7c-1.8-1.8-2.7-4.1-2.7-6.8c0-2.8,0.9-5.1,2.7-6.9s4-2.8,6.8-2.8c2.9,0,5.2,0.9,7,2.8
		c1.8,1.8,2.7,4.3,2.7,7.3L341.5,68.1z"/>
	<path class="st0" d="M344.1,57.6h4.6v2.1c0.8-0.9,1.7-1.5,2.6-1.9c1-0.4,2-0.6,3.1-0.6c1.1,0,2.2,0.3,3.1,0.8
		c0.9,0.6,1.7,1.4,2.2,2.5c0.7-1.1,1.6-1.9,2.7-2.5c1.1-0.6,2.2-0.8,3.5-0.8c1.3,0,2.4,0.3,3.4,0.9c1,0.6,1.7,1.4,2.1,2.4
		c0.4,1,0.6,2.6,0.6,4.8v10.7h-4.6v-9.3c0-2.1-0.3-3.5-0.8-4.2c-0.5-0.7-1.3-1.1-2.3-1.1c-0.8,0-1.5,0.2-2.1,0.7
		c-0.6,0.4-1.1,1.1-1.4,1.8c-0.3,0.8-0.4,2.1-0.4,3.8v8.2h-4.6v-8.8c0-1.6-0.1-2.8-0.4-3.6c-0.2-0.7-0.6-1.3-1.1-1.6
		c-0.5-0.4-1.1-0.5-1.7-0.5c-0.8,0-1.5,0.2-2.1,0.7c-0.6,0.4-1.1,1.1-1.4,1.9c-0.3,0.8-0.5,2.1-0.5,3.9v8.1h-4.6V57.6z"/>
</g>
<g>
	<g>
		<path class="st0" d="M5.4,55.6v15.7h2.2c2.2,0,3.7-0.2,4.7-0.7c1-0.5,1.8-1.3,2.4-2.5c0.6-1.2,0.9-2.6,0.9-4.3
			c0-2.6-0.7-4.7-2.2-6.1c-1.3-1.3-3.5-2-6.4-2L5.4,55.6L5.4,55.6z M0.7,51.1h5.6c3.6,0,6.3,0.4,8,1.3c1.8,0.9,3.2,2.4,4.3,4.4
			c1.1,2,1.7,4.4,1.7,7.1c0,1.9-0.3,3.7-1,5.3c-0.6,1.6-1.5,2.9-2.6,4c-1.1,1.1-2.3,1.8-3.6,2.2c-1.3,0.4-3.6,0.6-6.8,0.6H0.7V51.1z
			"/>
		<path class="st0" d="M37.1,64.4c-0.3-1-0.9-1.9-1.8-2.5c-0.9-0.6-1.9-1-3.1-1c-1.3,0-2.4,0.4-3.4,1.1c-0.6,0.4-1.2,1.2-1.7,2.4
			L37.1,64.4L37.1,64.4z M41.8,68.1H26.9c0.2,1.3,0.8,2.3,1.7,3.1c0.9,0.8,2.1,1.2,3.6,1.2c1.7,0,3.2-0.6,4.4-1.8l3.9,1.8
			c-1,1.4-2.1,2.4-3.5,3c-1.3,0.7-3,1-4.8,1c-2.9,0-5.2-0.9-7-2.7c-1.8-1.8-2.7-4.1-2.7-6.8c0-2.8,0.9-5.1,2.7-7
			c1.8-1.8,4.1-2.8,6.8-2.8c2.9,0,5.2,0.9,7.1,2.8c1.8,1.8,2.7,4.3,2.7,7.3V68.1z"/>
	</g>
	<polygon class="st0" points="51.7,51.1 56.6,51.1 62.8,68.7 69.2,51.1 74,51.1 65.1,75.9 60.5,75.9 	"/>
	<g>
		<path class="st0" d="M74.7,57.5h3.9v2.3c0.4-0.9,1-1.6,1.7-2.1c0.7-0.5,1.5-0.7,2.3-0.7c0.6,0,1.2,0.2,1.9,0.5l-1.4,4
			c-0.5-0.3-1-0.4-1.3-0.4c-0.7,0-1.3,0.4-1.8,1.3s-0.7,2.6-0.7,5.2l0,0.9v7.4h-4.6L74.7,57.5L74.7,57.5z"/>
		<path class="st0" d="M85.8,57.5h4.6v18.4h-4.6V57.5z M88.1,50c0.8,0,1.5,0.3,2.1,0.9c0.6,0.6,0.9,1.3,0.9,2.1
			c0,0.8-0.3,1.5-0.9,2.1c-0.6,0.6-1.3,0.9-2.1,0.9c-0.8,0-1.5-0.3-2.1-0.9c-0.6-0.6-0.9-1.3-0.9-2.2c0-0.8,0.3-1.5,0.9-2.1
			C86.6,50.3,87.3,50,88.1,50"/>
		<path class="st0" d="M107.3,64.4c-0.3-1-0.9-1.9-1.8-2.5c-0.9-0.6-1.9-1-3.1-1c-1.3,0-2.4,0.4-3.4,1.1c-0.6,0.4-1.2,1.2-1.7,2.4
			L107.3,64.4L107.3,64.4z M111.9,68.1H97.1c0.2,1.3,0.8,2.3,1.7,3.1c0.9,0.8,2.1,1.2,3.6,1.2c1.7,0,3.2-0.6,4.4-1.8l3.9,1.8
			c-1,1.4-2.1,2.4-3.5,3c-1.3,0.7-3,1-4.8,1c-2.9,0-5.2-0.9-7-2.7c-1.8-1.8-2.7-4.1-2.7-6.8c0-2.8,0.9-5.1,2.7-7
			c1.8-1.8,4.1-2.8,6.8-2.8c2.9,0,5.2,0.9,7.1,2.8c1.8,1.8,2.7,4.3,2.7,7.3L111.9,68.1z"/>
		<path class="st0" d="M125.9,60.1L123,63c-1.2-1.1-2.2-1.7-3.2-1.7c-0.5,0-0.9,0.1-1.2,0.3c-0.3,0.2-0.4,0.5-0.4,0.8
			c0,0.2,0.1,0.5,0.3,0.7c0.2,0.2,0.6,0.5,1.4,0.9l1.7,0.8c1.8,0.9,3,1.8,3.7,2.7c0.7,0.9,1,2,1,3.2c0,1.6-0.6,3-1.8,4.1
			c-1.2,1.1-2.8,1.6-4.8,1.6c-2.7,0-4.8-1-6.4-3.1l2.8-3.1c0.5,0.6,1.2,1.1,1.9,1.5s1.4,0.6,1.9,0.6c0.6,0,1.1-0.1,1.5-0.4
			c0.4-0.3,0.6-0.6,0.6-1c0-0.7-0.7-1.4-2-2.1l-1.6-0.8c-3-1.5-4.5-3.4-4.5-5.6c0-1.5,0.6-2.7,1.7-3.7c1.1-1,2.6-1.5,4.3-1.5
			c1.2,0,2.3,0.3,3.4,0.8C124.2,58.4,125.1,59.1,125.9,60.1"/>
	</g>
</g>
<path class="st1" d="M220.8,34.6c0.2,0,0.1-0.3,0-0.3c-4.6-0.1-8.3,3.1-9.5,4.2c-1.7,1.6-2.9,2.9-3.7,5c-0.1,0.1-0.1,0.2-0.1,0.3
	c-1.5,4.3-1.1,4.4-4.1,2.7c-4-2.2-10.3-2.1-14,1c-1.1,0.9-2.1,2-3,3.2c-1.5,2.1-2.7,4.5-2.5,6.9c0,0.2,0.2,0.2,0.3,0.1
	c2.7-3.6,7.7-5.6,12.3-4c4.9,1.7,6.7,5.4,7.7,8.5c0.2,0.7,0.4,1.5,0.5,2.5c0,0.1,0,0.2,0,0.3c0.1,1.1-0.1,2.4-0.4,3.6c0,0,0,0,0,0
	c0,0.1-0.1,0.3-0.1,0.4c-0.5,2-1.4,3.8-2.7,5.4c0,0-0.1,0.1-0.1,0.1c0,0.1-0.1,0.1-0.1,0.2c-0.8,1-1.6,1.8-2.5,2.4
	c-0.1,0.1-0.2,0.1-0.3,0.2c-0.2,0.1-0.3,0.2-0.5,0.4c-0.2,0.1-0.4,0.2-0.6,0.3c-0.8,0.5-1.6,0.8-2.4,1.2c-0.1,0.1-0.3,0.1-0.4,0.2
	c-0.3,0.1-0.6,0.2-0.8,0.2c-0.1,0-0.3,0.1-0.4,0.1c-0.3,0.1-0.6,0.1-0.9,0.2c-0.1,0-0.2,0-0.3,0.1c-0.7,0.1-1.5,0.2-2.2,0.2
	c-8.2,0-14.9-6.7-14.9-14.9c0-0.3,0-0.6,0-0.9c0.5-20.6,19.5-24.7,29.2-21.1c0.4,0.1,0.8-0.1,0.8-0.5c0.3-4.5,0.5-28.1-11.8-37.6
	c-2.4-1.9-6.2-4.1-8.9-4.1c0,0-17.4,9.1-18.8,20.9c0,0.1,0.2,0.2,0.3,0.1c0.8-1,2-1.6,3.4-1.6c1.3,0,2.4,0.6,3.2,1.4
	c1.1,1,1.6,2.6,0.9,4.6c-2.4,6.6-8.9,6.9-14.5,8.7c-0.1,0.1-0.2,0.2-0.1,0.3c0.9,1,1.2,2,1,3c-0.6,3.1-5.5,6.2-7.2,8.1
	c-0.9,1-1.7,2.2-2.4,3.6c0,0,0,0.1,0,0.1c-0.5,1-1,2.2-1.5,3.4c0,0,0,0,0,0.1c-0.1,0.2-0.1,0.4-0.2,0.6c-0.7,2.1-1.3,4.3-1.6,6.6
	c0,0.2-0.1,0.4-0.1,0.6c-0.1,0.4-0.1,0.7-0.1,1.1c-0.1,0.9-0.1,1.8-0.2,2.7c0,0.1,0,0.2,0,0.3v0.2c0,0.1,0,0.1,0,0.2
	c0,0.2,0,0.3,0,0.5c0,0.6,0.1,1.2,0.1,1.8c0.3,2.6,0.7,5.1,1.2,7.4c2.9,10,10.1,18.1,19.4,22.2c0,0,0.1,0,0.1,0.1
	c1.1,0.5,2.4,0.9,3.6,1.3c3.2,1,6.6,1.5,10.1,1.5c18.5,0,33.7-14.5,34.6-32.8c0,0,0,0,0,0c-0.1-3.2-0.4-6.5-0.8-9.7
	c-0.2-1.2-0.3-2.4-0.4-3.5C213.3,49,213.3,36.8,220.8,34.6z"/>
</svg>
