<svg width="136" height="36" viewBox="0 0 136 36" fill="none" xmlns="http://www.w3.org/2000/svg">
<g clip-path="url(#clip0_195_2)">
<path d="M66.6937 16.4456H57.9621V8.14514H54.9762V26.9948H57.9621V19.1015H66.6937V26.9948H69.6556V8.14514H66.6937V16.4456Z" fill="#575756"/>
<path d="M89.9769 8.14246H87.1161V26.9922H89.9769V8.14246Z" fill="#575756"/>
<path d="M117.688 15.0537V13.308H114.955V26.9948H117.816V19.1015C117.816 16.9512 119.083 15.7377 120.98 15.7377H122.17V13.1323H121.334C119.663 13.1323 118.399 13.6885 117.691 15.0564L117.688 15.0537Z" fill="#575756"/>
<path d="M96.3719 22.3908V15.8894H99.4855V13.308H96.3719V10.1704H93.511V13.308H91.1079V15.8894H93.511V22.5186C93.511 25.4539 95.1557 27.1493 98.0405 27.1493C98.4955 27.1493 99.1289 27.0721 99.584 26.9976V24.5438C99.254 24.5944 98.9001 24.621 98.6472 24.621C97.0026 24.621 96.3692 23.7853 96.3692 22.3935L96.3719 22.3908Z" fill="#575756"/>
<path d="M112.494 23.7906V17.7842C112.494 14.95 110.216 13.002 106.977 13.002C104.369 13.002 102.067 14.4177 101.282 16.4163L103.661 17.6059C104.193 16.3418 105.383 15.4796 106.9 15.4796C108.544 15.4796 109.633 16.4403 109.633 17.7815V18.3138L105.279 19.0217C102.115 19.5539 100.648 21.172 100.648 23.3728C100.648 25.752 102.522 27.2956 105.306 27.2956C107.203 27.2956 108.723 26.6116 109.761 25.398C110.045 26.2762 110.897 26.9922 111.93 26.9922H113.609V24.4107H113.119C112.776 24.4107 112.496 24.1313 112.496 23.788L112.494 23.7906ZM109.633 21.3024C109.633 23.4021 108.063 25.0467 105.761 25.0467C104.521 25.0467 103.634 24.3122 103.634 23.277C103.634 22.2418 104.318 21.4807 105.835 21.2279L109.633 20.5705V21.305V21.3024Z" fill="#575756"/>
<path d="M134.957 24.4134C134.614 24.4134 134.335 24.1339 134.335 23.7906V17.7842C134.335 14.95 132.056 13.002 128.818 13.002C126.212 13.002 123.908 14.4177 123.123 16.4163L125.502 17.6059C126.034 16.3418 127.224 15.4796 128.741 15.4796C130.385 15.4796 131.474 16.4403 131.474 17.7815V18.3138L127.12 19.0217C123.956 19.5539 122.489 21.172 122.489 23.3728C122.489 25.752 124.363 27.2956 127.146 27.2956C129.044 27.2956 130.564 26.6116 131.601 25.398C131.886 26.2762 132.738 26.9922 133.77 26.9922H135.45V24.4107H134.96L134.957 24.4134ZM131.474 21.3024C131.474 23.4021 129.904 25.0467 127.602 25.0467C126.361 25.0467 125.475 24.3122 125.475 23.277C125.475 22.2418 126.159 21.4807 127.676 21.2279L131.474 20.5705V21.305V21.3024Z" fill="#575756"/>
<path d="M83.7975 17.7203C83.063 19.0935 81.8441 20.6636 80.3672 22.1433C83.5553 21.8399 85.498 20.8605 85.498 20.15C85.498 18.7422 85.0909 17.4302 84.3883 16.3231C84.2739 16.7196 84.0876 17.18 83.7975 17.7203Z" fill="#E87722"/>
<path d="M78.3473 22.2364C78.4936 22.2364 78.64 22.2364 78.7811 22.2311C79.0658 21.973 79.3479 21.7042 79.6247 21.4274C81.0378 20.0143 82.1981 18.524 82.8874 17.2333C83.6219 15.8628 83.5447 15.2374 83.401 15.0937C82.1076 13.8003 80.3193 12.9993 78.3446 12.9993C74.3953 12.9993 71.1938 16.2007 71.1938 20.1474C71.1938 20.999 73.9775 22.2338 78.3446 22.2338L78.3473 22.2364Z" fill="#A1DA8E"/>
<path d="M83.9359 22.476C82.4349 22.9842 80.4496 23.2637 78.3473 23.2637C76.2449 23.2637 74.2596 22.9842 72.7586 22.476C72.1998 22.287 71.758 22.0821 71.4067 21.8745C72.1785 24.9908 74.9941 27.2982 78.3473 27.2982C81.7004 27.2982 84.516 24.9882 85.2878 21.8745C84.9365 22.0847 84.4947 22.287 83.9359 22.476Z" fill="#6FA491"/>
<path d="M31.7728 34.7151H31.1767L34.0216 30.9335L31.4295 27.0481H32.7761L34.7321 29.9941L36.941 27.0481H37.5424L35.0089 30.4172L37.8804 34.7178H36.5285L34.2957 31.3593L31.7728 34.7178V34.7151Z" fill="#575756"/>
<path d="M15.7096 27.0614H15.2279H13.5806L12.862 27.0641V34.7045H14.1767V31.2848H15.8772C17.0562 31.2848 18.0967 30.3321 18.0967 29.1744C18.0967 28.0168 16.947 27.0641 15.7042 27.0641L15.7096 27.0614ZM15.1427 30.7951H14.182V27.5191H15.1427C16.0449 27.5298 16.7741 28.2084 16.7741 29.1505C16.7741 30.0926 16.0449 30.7845 15.1427 30.7925V30.7951Z" fill="#575756"/>
<path d="M7.30804 34.7151H8.61737L5.00607 26.8698H4.68672L0.774689 34.7151H1.41871L2.87175 31.8463H5.9854L7.30538 34.7151H7.30804ZM3.12191 31.3539L4.50575 28.6235L5.76186 31.3539H3.12191Z" fill="#575756"/>
<path d="M27.6 27.5404V27.0454H22.2722V34.7151H27.6V34.2175H23.5603V31.3061H26.3599V30.7392H23.5603V27.5404H27.6Z" fill="#575756"/>
<path d="M29.431 23.788C31.0727 23.788 32.4036 22.4571 32.4036 20.8154C32.4036 19.1737 31.0727 17.8428 29.431 17.8428C27.7892 17.8428 26.4583 19.1737 26.4583 20.8154C26.4583 22.4571 27.7892 23.788 29.431 23.788Z" fill="#E87722"/>
<path d="M26.0006 9.37728C24.513 8.6614 22.7113 9.29212 21.9954 10.7798L17.804 19.4794C17.0881 20.967 17.7188 22.7687 19.2064 23.4845C20.6941 24.2004 22.4957 23.5697 23.2116 22.0821L27.4031 13.3824C28.119 11.8948 27.4882 10.0931 26.0006 9.37728Z" fill="#E87722"/>
<path d="M20.8644 0.307801C22.3307 1.03432 22.9348 2.828 22.2083 4.29168L13.3677 22.138C12.6411 23.6043 10.8475 24.2084 9.38378 23.4819C7.91744 22.7554 7.31334 20.9617 8.03986 19.498L16.8805 1.65173C17.607 0.185383 19.4007 -0.418718 20.8644 0.307801Z" fill="#E87722"/>
<path fill-rule="evenodd" clip-rule="evenodd" d="M46.1784 35.1293V-0.000732422H46.5667V35.1293H46.1784Z" fill="#575756"/>
</g>
<defs>
<clipPath id="clip0_195_2">
<rect width="134.925" height="35.1284" fill="white" transform="translate(0.774689)"/>
</clipPath>
</defs>
</svg>
