<svg xmlns="http://www.w3.org/2000/svg" viewBox="478.976 60.133 187.333 107.567">
  <defs>
    <style>
      .cls-1{fill:#1f190e}.cls-2{fill:#648a87}
    </style>
  </defs>
  <g id="HMH_logo" data-name="HMH logo" transform="translate(478.976 60.133)">
    <g id="Group_58" data-name="Group 58" transform="translate(36.496 96.244)">
      <path id="Path_235" data-name="Path 235" class="cls-1" d="M36.1 104.7h1.314v-7.784H36.1V95.4h4.549v1.516h-1.314v3.134h4.853v-3.134h-1.314V95.4h4.549v1.516h-1.314v7.784h1.314v1.516h-4.549V104.7h1.314v-3.033h-4.853v3.033h1.314v1.516H36.1z" transform="translate(-36.1 -95.198)"/>
      <path id="Path_236" data-name="Path 236" class="cls-1" d="M54.26 95.2a5.46 5.46 0 0 1 5.56 5.459 5.567 5.567 0 0 1-5.56 5.661 5.505 5.505 0 0 1-5.56-5.661 5.4 5.4 0 0 1 5.56-5.459zm0 9.4a3.721 3.721 0 0 0 3.54-3.84 3.544 3.544 0 1 0-7.077 0 3.721 3.721 0 0 0 3.537 3.84z" transform="translate(-35.962 -95.2)"/>
      <path id="Path_237" data-name="Path 237" class="cls-1" d="M62.014 96.918H60.7V95.4h4.549v1.516h-1.314v5.156a2.436 2.436 0 0 0 .4 1.516 2.287 2.287 0 0 0 2.022.91 2.141 2.141 0 0 0 2.022-1.011 3.349 3.349 0 0 0 .4-1.516v-5.155h-1.306V95.3h4.549v1.516h-1.313v5.156a4.833 4.833 0 0 1-.809 2.73 4.886 4.886 0 0 1-7.077 0 4 4 0 0 1-.809-2.73v-5.054z" transform="translate(-35.83 -95.199)"/>
      <path id="Path_238" data-name="Path 238" class="cls-1" d="M75.126 104.7h1.314v-7.682h-2.021v1.618H72.7V95.4h9.4v3.235h-1.717v-1.617h-2.022v7.682h1.314v1.516h-4.549z" transform="translate(-35.698 -95.198)"/>
      <path id="Path_239" data-name="Path 239" class="cls-1" d="M82.9 102.779h1.011v.4c0 1.213.607 2.224 1.921 2.224a1.948 1.948 0 0 0 1.921-2.224V96.41h-1.618v-.91h3.943v.91h-1.213v6.774a2.862 2.862 0 0 1-2.932 3.134A2.776 2.776 0 0 1 83 103.284v-.505z" transform="translate(-35.587 -95.197)"/>
      <path id="Path_240" data-name="Path 240" class="cls-1" d="M92.515 96.41H91.1v-.91h3.842v.91h-1.416v5.864a2.883 2.883 0 0 0 .505 1.921 2.822 2.822 0 0 0 2.527 1.213 2.712 2.712 0 0 0 2.527-1.213 3.872 3.872 0 0 0 .505-1.921v-5.763h-1.413V95.6h3.842v.91H100.6v5.864a3.947 3.947 0 0 1-.7 2.526 4.461 4.461 0 0 1-6.875 0 4.925 4.925 0 0 1-.607-2.527V96.41z" transform="translate(-35.497 -95.197)"/>
      <path id="Path_241" data-name="Path 241" class="cls-1" d="M105.426 105.305h1.415v-8.8h-2.931v1.719H103V95.6h8.9v2.629h-1.011V96.51h-2.932v8.8h1.415v.91h-3.842v-.91z" transform="translate(-35.366 -95.196)"/>
      <path id="Path_242" data-name="Path 242" class="cls-1" d="M115.226 105.305h1.415v-8.8h-2.931v1.719h-.91V95.6h8.9v2.629h-1.011V96.51h-2.932v8.8h1.415v.91h-3.842v-.91z" transform="translate(-35.258 -95.196)"/>
      <path id="Path_243" data-name="Path 243" class="cls-1" d="M122.8 105.306h1.415v-8.9H122.8V95.5h7.481v2.224h-1.011V96.41h-4.145v3.943h4.044v.91h-4.044v3.943h4.347v-1.416h.91v2.325H122.6v-.809z" transform="translate(-35.151 -95.197)"/>
      <path id="Path_244" data-name="Path 244" class="cls-1" d="M132.2 105.306h1.415v-8.9H132.2V95.5h4.549a5.909 5.909 0 0 1 1.921.2 2.6 2.6 0 0 1 1.719 2.629 2.89 2.89 0 0 1-2.325 3.033 1.211 1.211 0 0 1 .4.4l1.719 3.033c.2.3.4.3.708.3h.3v.91h-.607c-.91 0-1.112-.1-1.415-.809l-1.82-3.033c-.3-.505-.505-.607-1.213-.607h-1.516v3.639h1.415v.91H132.2v-.809zm4.954-4.549a2.044 2.044 0 0 0 2.123-2.224 1.816 1.816 0 0 0-1.213-1.921 5.966 5.966 0 0 0-1.415-.2h-2.022v4.347h2.527z" transform="translate(-35.046 -95.197)"/>
      <path id="Path_245" data-name="Path 245" class="cls-1" d="M143.411 103.184v.809c0 .91 1.112 1.415 2.325 1.415 1.415 0 2.325-.708 2.325-1.921 0-1.415-1.314-1.921-2.629-2.426-1.415-.505-2.831-1.112-2.831-2.932s1.516-2.73 3.235-2.73c1.516 0 3.033.607 3.033 1.618v1.113h-1.011v-.809c0-.708-1.112-1.011-2.022-1.011-1.213 0-2.123.607-2.123 1.719 0 1.314 1.112 1.719 2.426 2.224 1.516.607 3.033 1.213 3.033 3.134s-1.516 3.033-3.437 3.033c-1.516 0-3.336-.708-3.336-2.123v-1.011h1.011z" transform="translate(-34.934 -95.198)"/>
    </g>
    <g id="Group_61" data-name="Group 61" transform="translate(0 45.999)">
      <path id="Path_246" data-name="Path 246" class="cls-1" d="M6.167 72.9V58.643H2.831V72.9H0V45.5h2.831v10.413h3.336V45.5H9v27.4z" transform="translate(0 -45.5)"/>
      <path id="Path_247" data-name="Path 247" class="cls-1" d="M15.327 72.9a2.424 2.424 0 0 1-2.527-2.53V48.027a2.424 2.424 0 0 1 2.527-2.527h3.842a2.424 2.424 0 0 1 2.531 2.527v22.242a2.424 2.424 0 0 1-2.531 2.531h-3.842zm.607-24.567a.268.268 0 0 0-.3.3v21.13a.268.268 0 0 0 .3.3h2.73a.268.268 0 0 0 .3-.3V48.634a.268.268 0 0 0-.3-.3z" transform="translate(.14 -45.5)"/>
      <path id="Path_248" data-name="Path 248" class="cls-1" d="M28.127 72.9a2.424 2.424 0 0 1-2.527-2.53V45.5h2.831v24.263a.268.268 0 0 0 .3.3h2.73a.268.268 0 0 0 .3-.3V45.5H34.6v24.87a2.424 2.424 0 0 1-2.53 2.53z" transform="translate(.281 -45.5)"/>
      <path id="Path_249" data-name="Path 249" class="cls-1" d="M40.837 72.9V48.331H37.4V45.5h9.705v2.831h-3.437V72.9z" transform="translate(.41 -45.5)"/>
      <g id="Group_59" data-name="Group 59" transform="translate(55.502)">
        <path id="Path_250" data-name="Path 250" class="cls-1" d="M66.021 72.9V54.4l-2.73 13.143H60.46L57.731 54.4v18.5H54.9V45.5h3.538l3.437 16.277L65.212 45.5h3.639v27.4z" transform="translate(-54.9 -45.5)"/>
      </g>
      <path id="Path_251" data-name="Path 251" class="cls-1" d="M72.6 72.9V45.5h8.189v2.831h-5.358v7.582h3.842v2.73h-3.842v11.424h5.358V72.9z" transform="translate(.797 -45.5)"/>
      <path id="Path_252" data-name="Path 252" class="cls-1" d="M86.437 72.9V48.331H83V45.5h9.705v2.831h-3.437V72.9z" transform="translate(.911 -45.5)"/>
      <path id="Path_253" data-name="Path 253" class="cls-1" d="M100.4 45.5h2.831v10.413h3.336V45.5h2.833v27.4h-2.831V58.643h-3.336V72.9H100.4z" transform="translate(1.102 -45.5)"/>
      <path id="Rectangle_45" data-name="Rectangle 45" class="cls-1" transform="translate(114.442)" d="M0 0h2.831v27.397H0z"/>
      <path id="Path_254" data-name="Path 254" class="cls-1" d="M122.327 72.9a2.424 2.424 0 0 1-2.527-2.53v-5.257h2.831v4.65a.268.268 0 0 0 .3.3h2.73a.268.268 0 0 0 .3-.3v-7.076c0-.708-.1-1.011-.2-1.112a2.68 2.68 0 0 0-.505-.607l-3.842-3.437a6.96 6.96 0 0 1-1.112-1.314 4.667 4.667 0 0 1-.505-2.325v-5.865a2.424 2.424 0 0 1 2.527-2.527h3.842a2.424 2.424 0 0 1 2.527 2.527v5.055h-2.831v-4.448a.268.268 0 0 0-.3-.3h-2.73a.268.268 0 0 0-.3.3v4.752c0 .708.1 1.011.2 1.112a2.68 2.68 0 0 0 .505.607l3.842 3.437a6.96 6.96 0 0 1 1.112 1.314 4.667 4.667 0 0 1 .505 2.325v8.088a2.424 2.424 0 0 1-2.527 2.527h-3.842z" transform="translate(1.314 -45.5)"/>
      <path id="Path_255" data-name="Path 255" class="cls-1" d="M134.938 72.9V48.331H131.4V45.5h9.806v2.831h-3.538V72.9z" transform="translate(1.442 -45.5)"/>
      <path id="Path_256" data-name="Path 256" class="cls-1" d="M146.627 72.9a2.424 2.424 0 0 1-2.527-2.53V48.027a2.424 2.424 0 0 1 2.527-2.527h3.842A2.424 2.424 0 0 1 153 48.027v22.242a2.424 2.424 0 0 1-2.527 2.527h-3.842zm.607-24.567a.268.268 0 0 0-.3.3v21.13a.268.268 0 0 0 .3.3h2.73a.268.268 0 0 0 .3-.3V48.634a.268.268 0 0 0-.3-.3z" transform="translate(1.581 -45.5)"/>
      <g id="Group_60" data-name="Group 60" transform="translate(158.52)">
        <path id="Path_257" data-name="Path 257" class="cls-1" d="M156.8 45.5h6.369a2.424 2.424 0 0 1 2.527 2.527v13.85a2.953 2.953 0 0 1-.2.91.928.928 0 0 1-.4.607 1.4 1.4 0 0 0-.3.4l2.527 9.2h-2.831l-2.224-8.492h-2.629V73H156.8zm5.864 16.176a.268.268 0 0 0 .3-.3V48.634a.268.268 0 0 0-.3-.3h-3.033v13.342z" transform="translate(-156.8 -45.5)"/>
      </g>
      <path id="Rectangle_46" data-name="Rectangle 46" class="cls-1" transform="translate(172.27)" d="M0 0h2.831v27.397H0z"/>
      <path id="Path_258" data-name="Path 258" class="cls-1" d="M177.2 72.9V45.5h8.189v2.831h-5.459v7.582h3.842v2.73h-3.842v11.424h5.459V72.9z" transform="translate(1.944 -45.5)"/>
    </g>
    <path id="Rectangle_47" data-name="Rectangle 47" class="cls-2" transform="translate(50.751 83.203)" d="M0 0h85.73v2.123H0z"/>
    <path id="Path_259" data-name="Path 259" class="cls-2" d="M135.93 14.457v21.736h-7.178V21.736h-16.58v14.457h-7.178V9.806l-11.929 11.93-11.828-11.93v26.387h-7.279V21.736H57.479v14.457H50.2V14.457h23.758V0h7.279l11.828 11.929L104.995 0h7.178v14.457z" transform="translate(.551)"/>
  </g>
</svg>