<?xml version="1.0" encoding="utf-8"?>
<!-- Generator: Adobe Illustrator 22.1.0, SVG Export Plug-In . SVG Version: 6.00 Build 0)  -->
<svg version="1.1" id="Laag_1" xmlns="http://www.w3.org/2000/svg" xmlns:xlink="http://www.w3.org/1999/xlink" x="0px" y="0px"
	 viewBox="0 0 294.9 41.9" style="enable-background:new 0 0 294.9 41.9;" xml:space="preserve">
<style type="text/css">
	.st0{enable-background:new    ;}
	.st1{fill:#EE721F;}
	.st2{fill:none;stroke:#EE7220;stroke-miterlimit:10;}
	.st3{fill:#008BC1;}
	.st4{fill:none;stroke:#008BC1;stroke-miterlimit:10;}
</style>
<g class="st0">
	<path class="st1" d="M30.3,31.4l-0.9,8.1H1.8V39L18.9,9.5H9.5c-0.2,0-0.4,0-0.6,0s-0.3,0-0.4,0c-0.7,0-1.2,0-1.5,0.1
		c-0.3,0-0.7,0.2-1.2,0.4c-0.2,0.1-0.4,0.2-0.6,0.3S4.7,10.6,4.4,11L4,11.5H3.2l0-8.1h27.1v0.6L13.1,33.4h10.6c0.2,0,0.4,0,0.6,0
		c0.2,0,0.4,0,0.5,0c0.6,0,1.2,0,1.6-0.1c0.4,0,0.8-0.2,1.3-0.3c0.3-0.1,0.6-0.3,1.1-0.6c0.1-0.1,0.3-0.2,0.6-0.4l0.4-0.8L30.3,31.4
		z"/>
	<path class="st1" d="M71.6,21.2c0,5.9-2,10.6-6,14.2c-3.7,3.3-8.1,4.9-13.3,4.9c-5.4,0-9.9-1.5-13.4-4.6c-3.9-3.5-5.9-8.3-5.9-14.5
		c0-5.4,1.7-9.8,5.1-13.2c3.6-3.6,8.3-5.4,14.1-5.4C58,2.6,62.7,4.4,66.4,8C69.8,11.4,71.6,15.8,71.6,21.2z M63.5,21.2
		c0-3.6-1-6.6-3-9c-2.1-2.5-4.9-3.8-8.3-3.8c-3.5,0-6.3,1.3-8.4,3.9c-2,2.4-2.9,5.4-2.9,8.9c0,4.1,1,7.4,3.1,9.7
		c2,2.3,4.8,3.4,8.2,3.4c3.5,0,6.3-1.2,8.3-3.7C62.5,28.2,63.5,25.1,63.5,21.2z"/>
	<path class="st1" d="M111,4c-0.8,0.3-1.3,0.6-1.5,0.9c-0.1,0.1-0.3,0.4-0.6,1c-0.2,0.4-0.4,0.8-0.4,1.2c-0.1,0.4-0.1,0.9-0.1,1.5
		v31.8h-0.4L84.2,18.1v16.5c0,0.5,0.1,1.1,0.2,1.5s0.3,0.9,0.7,1.3c0.3,0.4,0.6,0.7,0.7,0.9c0.3,0.3,0.6,0.5,0.9,0.6v0.5H74.4v-0.5
		c0.6-0.2,1.2-0.6,1.6-1.1c0.5-0.5,0.7-1.1,0.9-1.9c0.1-0.3,0.1-1.1,0.1-2.2V1.9h0.6L101,24.8V8.6c0-0.7,0-1.2-0.1-1.5
		c-0.1-0.3-0.2-0.7-0.4-1.2c-0.3-0.5-0.6-0.9-0.8-1.2C99.4,4.4,99,4.1,98.6,4V3.4H111V4z"/>
</g>
<g class="st0">
	<path class="st2" d="M30.3,31.4l-0.9,8.1H1.8V39L18.9,9.5H9.5c-0.2,0-0.4,0-0.6,0s-0.3,0-0.4,0c-0.7,0-1.2,0-1.5,0.1
		c-0.3,0-0.7,0.2-1.2,0.4c-0.2,0.1-0.4,0.2-0.6,0.3S4.7,10.6,4.4,11L4,11.5H3.2l0-8.1h27.1v0.6L13.1,33.4h10.6c0.2,0,0.4,0,0.6,0
		c0.2,0,0.4,0,0.5,0c0.6,0,1.2,0,1.6-0.1c0.4,0,0.8-0.2,1.3-0.3c0.3-0.1,0.6-0.3,1.1-0.6c0.1-0.1,0.3-0.2,0.6-0.4l0.4-0.8L30.3,31.4
		z"/>
	<path class="st2" d="M71.6,21.2c0,5.9-2,10.6-6,14.2c-3.7,3.3-8.1,4.9-13.3,4.9c-5.4,0-9.9-1.5-13.4-4.6c-3.9-3.5-5.9-8.3-5.9-14.5
		c0-5.4,1.7-9.8,5.1-13.2c3.6-3.6,8.3-5.4,14.1-5.4C58,2.6,62.7,4.4,66.4,8C69.8,11.4,71.6,15.8,71.6,21.2z M63.5,21.2
		c0-3.6-1-6.6-3-9c-2.1-2.5-4.9-3.8-8.3-3.8c-3.5,0-6.3,1.3-8.4,3.9c-2,2.4-2.9,5.4-2.9,8.9c0,4.1,1,7.4,3.1,9.7
		c2,2.3,4.8,3.4,8.2,3.4c3.5,0,6.3-1.2,8.3-3.7C62.5,28.2,63.5,25.1,63.5,21.2z"/>
	<path class="st2" d="M111,4c-0.8,0.3-1.3,0.6-1.5,0.9c-0.1,0.1-0.3,0.4-0.6,1c-0.2,0.4-0.4,0.8-0.4,1.2c-0.1,0.4-0.1,0.9-0.1,1.5
		v31.8h-0.4L84.2,18.1v16.5c0,0.5,0.1,1.1,0.2,1.5s0.3,0.9,0.7,1.3c0.3,0.4,0.6,0.7,0.7,0.9c0.3,0.3,0.6,0.5,0.9,0.6v0.5H74.4v-0.5
		c0.6-0.2,1.2-0.6,1.6-1.1c0.5-0.5,0.7-1.1,0.9-1.9c0.1-0.3,0.1-1.1,0.1-2.2V1.9h0.6L101,24.8V8.6c0-0.7,0-1.2-0.1-1.5
		c-0.1-0.3-0.2-0.7-0.4-1.2c-0.3-0.5-0.6-0.9-0.8-1.2C99.4,4.4,99,4.1,98.6,4V3.4H111V4z"/>
</g>
<g class="st0">
	<path class="st3" d="M148.9,38.6l0,0.6c-0.9,0.1-1.9,0.2-2.9,0.2s-1.9,0.1-2.6,0.1c-0.3,0-0.7,0-1,0c-0.3,0-0.7,0-1,0
		c-0.6,0-1.1,0-1.6-0.1c-0.4-0.1-0.9-0.3-1.4-0.5c-0.5-0.3-1-0.6-1.3-0.9c-0.4-0.3-0.8-0.7-1.2-1.3l-12.2-15.6v11.8
		c0,1,0,1.9,0.2,2.6c0.1,0.7,0.3,1.2,0.6,1.6c0.2,0.3,0.4,0.7,0.7,1c0.3,0.3,0.8,0.6,1.5,0.9v0.5h-13V39c0.4-0.2,0.7-0.4,1-0.6
		c0.2-0.2,0.5-0.5,0.7-0.9c0.3-0.4,0.4-0.9,0.5-1.4c0.1-0.5,0.1-1.1,0.1-1.7c0-0.4,0-0.7,0-0.7V10.2c0-1.2-0.1-2.2-0.3-3.1
		c-0.2-0.9-0.5-1.6-1-2.1c-0.2-0.3-0.5-0.5-0.7-0.7c-0.2-0.2-0.5-0.3-0.8-0.5V3.4h13v0.6c-0.7,0.2-1.3,0.6-1.8,1.2
		c-0.3,0.4-0.6,0.9-0.7,1.4c-0.1,0.5-0.2,1.1-0.2,1.8c0,0.3,0,0.6,0,0.7v9.8l9.9-12c0.2-0.2,0.4-0.5,0.5-0.8s0.2-0.6,0.2-0.9
		s-0.1-0.5-0.2-0.7c-0.3-0.3-0.7-0.4-1.2-0.4V3.4h13.4l0,0.6c-0.4,0.2-0.8,0.4-1.2,0.6s-0.8,0.4-1.1,0.7c-0.6,0.5-1,0.9-1.5,1.4
		C142,7,141.6,7.5,141.1,8l-9.7,11.2l13.7,16.6c0.4,0.5,0.8,0.9,1.1,1.2c0.7,0.7,1.3,1.2,1.9,1.4c0.1,0.1,0.2,0.1,0.4,0.2
		C148.6,38.6,148.8,38.6,148.9,38.6z"/>
	<path class="st3" d="M176.1,30.2l-0.7,9.3h-23.9V39c0.3-0.1,0.6-0.3,0.9-0.5c0.2-0.2,0.5-0.4,0.7-0.6c0.4-0.5,0.7-1,0.8-1.7
		c0.2-0.7,0.3-1.3,0.3-2.1V9.1c0-0.8-0.1-1.5-0.3-2.1c-0.2-0.7-0.5-1.3-0.8-1.9c-0.2-0.3-0.4-0.6-0.5-0.7c-0.2-0.2-0.4-0.3-0.7-0.4
		l-0.6-0.1V3.4h13.5v0.6c-0.3,0.1-0.5,0.1-0.7,0.2s-0.4,0.2-0.6,0.5c-0.3,0.4-0.6,0.9-0.8,1.4c-0.2,0.5-0.3,1.1-0.3,2
		c0,0.3,0,0.5,0,0.7v20.2c0,0.8,0,1.3,0.1,1.6c0.1,0.8,0.4,1.4,0.9,1.8c0.3,0.3,0.8,0.6,1.5,0.8c0.7,0.2,1.5,0.3,2.4,0.3
		c0.2,0,0.3,0,0.3,0h1.7c0.7,0,1.4-0.1,2-0.2c0.9-0.2,1.8-0.6,2.6-1.1c0.3-0.2,0.6-0.5,0.9-0.9c0.2-0.3,0.4-0.6,0.7-1.1H176.1z"/>
	<path class="st3" d="M216.1,39.5h-11.7V39c0.4,0,0.7-0.2,0.9-0.5c0.2-0.3,0.3-0.7,0.3-1.1c0-0.2,0-0.4-0.1-0.5l-1.8-4.2h-13.6
		l-1.9,4.1c-0.1,0.3-0.2,0.5-0.2,0.8c0,0.2,0,0.4,0.1,0.6c0,0.2,0.3,0.4,0.9,0.6c0.1,0,0.2,0.1,0.4,0.2v0.5h-10.9V39
		c0.3-0.3,0.5-0.4,0.6-0.6c0.2-0.2,0.4-0.4,0.6-0.7c0.4-0.5,0.7-1,0.9-1.5l15.7-34.7h0.7L213,34.2c0.5,1.1,0.9,1.8,0.9,1.8
		c0.4,0.7,0.8,1.3,1.2,1.9c0.1,0.2,0.3,0.3,0.5,0.5c0.2,0.2,0.4,0.3,0.5,0.5V39.5z M201.8,27.2l-5.2-12l-4.8,12H201.8z"/>
	<path class="st3" d="M256.4,39.5h-11.7V39c0.4,0,0.7-0.2,0.9-0.5c0.2-0.3,0.3-0.7,0.3-1.1c0-0.2,0-0.4-0.1-0.5l-1.8-4.2h-13.6
		l-1.9,4.1c-0.1,0.3-0.2,0.5-0.2,0.8c0,0.2,0,0.4,0.1,0.6c0,0.2,0.3,0.4,0.9,0.6c0.1,0,0.2,0.1,0.4,0.2v0.5h-10.9V39
		c0.3-0.3,0.5-0.4,0.6-0.6c0.2-0.2,0.4-0.4,0.6-0.7c0.4-0.5,0.7-1,0.9-1.5l15.7-34.7h0.7l15.9,32.7c0.5,1.1,0.9,1.8,0.9,1.8
		c0.4,0.7,0.8,1.3,1.2,1.9c0.1,0.2,0.3,0.3,0.5,0.5c0.2,0.2,0.4,0.3,0.5,0.5V39.5z M242.1,27.2l-5.2-12l-4.8,12H242.1z"/>
	<path class="st3" d="M293.2,39.5c-0.4,0-1,0.1-1.7,0.1c-0.7,0-1.5,0.1-2.6,0.1c-0.3,0-0.6,0-0.8,0s-0.5,0-0.8,0
		c-1.4,0-2.4-0.2-3.1-0.5c-1-0.5-1.9-1.5-2.9-2.9l-9.6-15.3v-0.7h1.5c1.8,0,3.4-0.4,4.6-1.3c1.4-1,2.1-2.4,2.1-4.2
		c0-2.3-0.8-4-2.5-4.9c-1.2-0.6-2.9-1-5.2-1c-0.6,0-1.1,0-1.4,0c-0.4,0-0.8,0.1-1.1,0.1v23.3c0,1.4,0.1,2.5,0.2,3.3
		c0.1,0.9,0.4,1.6,0.9,2.3c0.2,0.3,0.4,0.5,0.7,0.6c0.3,0.1,0.7,0.3,1.1,0.4v0.5h-13.6v-0.5c0.6-0.1,1.1-0.4,1.6-0.8
		c0.4-0.4,0.8-1.1,0.9-2.1c0.1-0.7,0.2-1.6,0.2-2.7V9.7c0-0.9-0.1-1.7-0.2-2.4c-0.1-0.7-0.4-1.3-0.7-2c-0.2-0.3-0.4-0.6-0.7-0.8
		s-0.7-0.4-1.2-0.6V3.4h16.8c3.5,0,6.4,1,8.8,3.1c2.4,2.1,3.5,4.6,3.5,7.7c0,1.7-0.4,3.1-1.1,4.4c-0.8,1.3-1.8,2.4-3.2,3.3L282,23
		l8.8,13.6c0.2,0.3,0.3,0.6,0.5,0.8s0.4,0.5,0.7,0.8c0.2,0.1,0.3,0.3,0.5,0.4c0.2,0.1,0.4,0.2,0.5,0.3V39.5z"/>
</g>
<g class="st0">
	<path class="st4" d="M148.9,38.6l0,0.6c-0.9,0.1-1.9,0.2-2.9,0.2s-1.9,0.1-2.6,0.1c-0.3,0-0.7,0-1,0c-0.3,0-0.7,0-1,0
		c-0.6,0-1.1,0-1.6-0.1c-0.4-0.1-0.9-0.3-1.4-0.5c-0.5-0.3-1-0.6-1.3-0.9c-0.4-0.3-0.8-0.7-1.2-1.3l-12.2-15.6v11.8
		c0,1,0,1.9,0.2,2.6c0.1,0.7,0.3,1.2,0.6,1.6c0.2,0.3,0.4,0.7,0.7,1c0.3,0.3,0.8,0.6,1.5,0.9v0.5h-13V39c0.4-0.2,0.7-0.4,1-0.6
		c0.2-0.2,0.5-0.5,0.7-0.9c0.3-0.4,0.4-0.9,0.5-1.4c0.1-0.5,0.1-1.1,0.1-1.7c0-0.4,0-0.7,0-0.7V10.2c0-1.2-0.1-2.2-0.3-3.1
		c-0.2-0.9-0.5-1.6-1-2.1c-0.2-0.3-0.5-0.5-0.7-0.7c-0.2-0.2-0.5-0.3-0.8-0.5V3.4h13v0.6c-0.7,0.2-1.3,0.6-1.8,1.2
		c-0.3,0.4-0.6,0.9-0.7,1.4c-0.1,0.5-0.2,1.1-0.2,1.8c0,0.3,0,0.6,0,0.7v9.8l9.9-12c0.2-0.2,0.4-0.5,0.5-0.8s0.2-0.6,0.2-0.9
		s-0.1-0.5-0.2-0.7c-0.3-0.3-0.7-0.4-1.2-0.4V3.4h13.4l0,0.6c-0.4,0.2-0.8,0.4-1.2,0.6s-0.8,0.4-1.1,0.7c-0.6,0.5-1,0.9-1.5,1.4
		C142,7,141.6,7.5,141.1,8l-9.7,11.2l13.7,16.6c0.4,0.5,0.8,0.9,1.1,1.2c0.7,0.7,1.3,1.2,1.9,1.4c0.1,0.1,0.2,0.1,0.4,0.2
		C148.6,38.6,148.8,38.6,148.9,38.6z"/>
	<path class="st4" d="M176.1,30.2l-0.7,9.3h-23.9V39c0.3-0.1,0.6-0.3,0.9-0.5c0.2-0.2,0.5-0.4,0.7-0.6c0.4-0.5,0.7-1,0.8-1.7
		c0.2-0.7,0.3-1.3,0.3-2.1V9.1c0-0.8-0.1-1.5-0.3-2.1c-0.2-0.7-0.5-1.3-0.8-1.9c-0.2-0.3-0.4-0.6-0.5-0.7c-0.2-0.2-0.4-0.3-0.7-0.4
		l-0.6-0.1V3.4h13.5v0.6c-0.3,0.1-0.5,0.1-0.7,0.2s-0.4,0.2-0.6,0.5c-0.3,0.4-0.6,0.9-0.8,1.4c-0.2,0.5-0.3,1.1-0.3,2
		c0,0.3,0,0.5,0,0.7v20.2c0,0.8,0,1.3,0.1,1.6c0.1,0.8,0.4,1.4,0.9,1.8c0.3,0.3,0.8,0.6,1.5,0.8c0.7,0.2,1.5,0.3,2.4,0.3
		c0.2,0,0.3,0,0.3,0h1.7c0.7,0,1.4-0.1,2-0.2c0.9-0.2,1.8-0.6,2.6-1.1c0.3-0.2,0.6-0.5,0.9-0.9c0.2-0.3,0.4-0.6,0.7-1.1H176.1z"/>
	<path class="st4" d="M216.1,39.5h-11.7V39c0.4,0,0.7-0.2,0.9-0.5c0.2-0.3,0.3-0.7,0.3-1.1c0-0.2,0-0.4-0.1-0.5l-1.8-4.2h-13.6
		l-1.9,4.1c-0.1,0.3-0.2,0.5-0.2,0.8c0,0.2,0,0.4,0.1,0.6c0,0.2,0.3,0.4,0.9,0.6c0.1,0,0.2,0.1,0.4,0.2v0.5h-10.9V39
		c0.3-0.3,0.5-0.4,0.6-0.6c0.2-0.2,0.4-0.4,0.6-0.7c0.4-0.5,0.7-1,0.9-1.5l15.7-34.7h0.7L213,34.2c0.5,1.1,0.9,1.8,0.9,1.8
		c0.4,0.7,0.8,1.3,1.2,1.9c0.1,0.2,0.3,0.3,0.5,0.5c0.2,0.2,0.4,0.3,0.5,0.5V39.5z M201.8,27.2l-5.2-12l-4.8,12H201.8z"/>
	<path class="st4" d="M256.4,39.5h-11.7V39c0.4,0,0.7-0.2,0.9-0.5c0.2-0.3,0.3-0.7,0.3-1.1c0-0.2,0-0.4-0.1-0.5l-1.8-4.2h-13.6
		l-1.9,4.1c-0.1,0.3-0.2,0.5-0.2,0.8c0,0.2,0,0.4,0.1,0.6c0,0.2,0.3,0.4,0.9,0.6c0.1,0,0.2,0.1,0.4,0.2v0.5h-10.9V39
		c0.3-0.3,0.5-0.4,0.6-0.6c0.2-0.2,0.4-0.4,0.6-0.7c0.4-0.5,0.7-1,0.9-1.5l15.7-34.7h0.7l15.9,32.7c0.5,1.1,0.9,1.8,0.9,1.8
		c0.4,0.7,0.8,1.3,1.2,1.9c0.1,0.2,0.3,0.3,0.5,0.5c0.2,0.2,0.4,0.3,0.5,0.5V39.5z M242.1,27.2l-5.2-12l-4.8,12H242.1z"/>
	<path class="st4" d="M293.2,39.5c-0.4,0-1,0.1-1.7,0.1c-0.7,0-1.5,0.1-2.6,0.1c-0.3,0-0.6,0-0.8,0s-0.5,0-0.8,0
		c-1.4,0-2.4-0.2-3.1-0.5c-1-0.5-1.9-1.5-2.9-2.9l-9.6-15.3v-0.7h1.5c1.8,0,3.4-0.4,4.6-1.3c1.4-1,2.1-2.4,2.1-4.2
		c0-2.3-0.8-4-2.5-4.9c-1.2-0.6-2.9-1-5.2-1c-0.6,0-1.1,0-1.4,0c-0.4,0-0.8,0.1-1.1,0.1v23.3c0,1.4,0.1,2.5,0.2,3.3
		c0.1,0.9,0.4,1.6,0.9,2.3c0.2,0.3,0.4,0.5,0.7,0.6c0.3,0.1,0.7,0.3,1.1,0.4v0.5h-13.6v-0.5c0.6-0.1,1.1-0.4,1.6-0.8
		c0.4-0.4,0.8-1.1,0.9-2.1c0.1-0.7,0.2-1.6,0.2-2.7V9.7c0-0.9-0.1-1.7-0.2-2.4c-0.1-0.7-0.4-1.3-0.7-2c-0.2-0.3-0.4-0.6-0.7-0.8
		s-0.7-0.4-1.2-0.6V3.4h16.8c3.5,0,6.4,1,8.8,3.1c2.4,2.1,3.5,4.6,3.5,7.7c0,1.7-0.4,3.1-1.1,4.4c-0.8,1.3-1.8,2.4-3.2,3.3L282,23
		l8.8,13.6c0.2,0.3,0.3,0.6,0.5,0.8s0.4,0.5,0.7,0.8c0.2,0.1,0.3,0.3,0.5,0.4c0.2,0.1,0.4,0.2,0.5,0.3V39.5z"/>
</g>
</svg>
